<svg xmlns="http://www.w3.org/2000/svg" xmlns:xlink="http://www.w3.org/1999/xlink" width="200" viewBox="0 0 150 149.999998" height="200" preserveAspectRatio="xMidYMid meet"><defs><g></g><clipPath id="f0ddb7fd34"><path d="M 10.566406 8.003906 L 85.566406 8.003906 L 85.566406 64.253906 L 10.566406 64.253906 Z M 10.566406 8.003906 " clip-rule="nonzero"></path></clipPath><clipPath id="68198a2f7e"><path d="M 40.292969 40.460938 L 149.984375 40.460938 L 149.984375 134.996094 L 40.292969 134.996094 Z M 40.292969 40.460938 " clip-rule="nonzero"></path></clipPath><clipPath id="a9120e26ed"><path d="M 117 27.3125 L 142 27.3125 L 142 51 L 117 51 Z M 117 27.3125 " clip-rule="nonzero"></path></clipPath></defs><g clip-path="url(#f0ddb7fd34)"><path fill="#e53935" d="M 22.285156 8.003906 L 73.847656 8.003906 C 74.617188 8.003906 75.378906 8.078125 76.136719 8.230469 C 76.890625 8.378906 77.621094 8.601562 78.332031 8.894531 C 79.042969 9.191406 79.71875 9.550781 80.359375 9.980469 C 81 10.40625 81.589844 10.890625 82.136719 11.4375 C 82.679688 11.980469 83.164062 12.574219 83.59375 13.210938 C 84.019531 13.851562 84.382812 14.527344 84.675781 15.238281 C 84.96875 15.949219 85.191406 16.683594 85.34375 17.4375 C 85.492188 18.191406 85.566406 18.953125 85.566406 19.722656 L 85.566406 52.535156 C 85.566406 53.304688 85.492188 54.066406 85.34375 54.820312 C 85.191406 55.574219 84.96875 56.308594 84.675781 57.019531 C 84.382812 57.730469 84.019531 58.40625 83.59375 59.046875 C 83.164062 59.6875 82.679688 60.277344 82.136719 60.820312 C 81.589844 61.367188 81 61.851562 80.359375 62.277344 C 79.71875 62.707031 79.042969 63.066406 78.332031 63.363281 C 77.621094 63.65625 76.890625 63.878906 76.136719 64.027344 C 75.378906 64.179688 74.617188 64.253906 73.847656 64.253906 L 22.285156 64.253906 C 21.515625 64.253906 20.753906 64.179688 20 64.027344 C 19.246094 63.878906 18.511719 63.65625 17.800781 63.363281 C 17.089844 63.066406 16.414062 62.707031 15.777344 62.277344 C 15.136719 61.851562 14.542969 61.367188 14 60.820312 C 13.457031 60.277344 12.96875 59.6875 12.542969 59.046875 C 12.117188 58.40625 11.753906 57.730469 11.460938 57.019531 C 11.164062 56.308594 10.941406 55.574219 10.792969 54.820312 C 10.644531 54.066406 10.566406 53.304688 10.566406 52.535156 L 10.566406 19.722656 C 10.566406 18.953125 10.644531 18.191406 10.792969 17.4375 C 10.941406 16.683594 11.164062 15.949219 11.460938 15.238281 C 11.753906 14.527344 12.117188 13.851562 12.542969 13.210938 C 12.96875 12.574219 13.457031 11.980469 14 11.4375 C 14.542969 10.890625 15.136719 10.40625 15.777344 9.980469 C 16.414062 9.550781 17.089844 9.191406 17.800781 8.894531 C 18.511719 8.601562 19.246094 8.378906 20 8.230469 C 20.753906 8.078125 21.515625 8.003906 22.285156 8.003906 Z M 22.285156 8.003906 " fill-opacity="1" fill-rule="nonzero"></path></g><path fill="#fafafa" d="M 60.835938 34.035156 L 37.398438 22.316406 C 37.21875 22.226562 37.035156 22.160156 36.839844 22.117188 C 36.644531 22.078125 36.445312 22.058594 36.246094 22.070312 C 36.046875 22.078125 35.851562 22.113281 35.660156 22.171875 C 35.46875 22.230469 35.289062 22.3125 35.117188 22.417969 C 34.949219 22.519531 34.792969 22.644531 34.65625 22.789062 C 34.515625 22.933594 34.398438 23.09375 34.300781 23.269531 C 34.203125 23.441406 34.132812 23.628906 34.082031 23.820312 C 34.03125 24.015625 34.003906 24.210938 34.003906 24.410156 L 34.003906 47.847656 C 34.003906 48.046875 34.03125 48.246094 34.082031 48.4375 C 34.132812 48.632812 34.203125 48.816406 34.300781 48.988281 C 34.398438 49.164062 34.515625 49.324219 34.65625 49.46875 C 34.792969 49.613281 34.949219 49.738281 35.117188 49.84375 C 35.289062 49.945312 35.46875 50.027344 35.660156 50.085938 C 35.851562 50.144531 36.046875 50.179688 36.246094 50.1875 C 36.445312 50.199219 36.644531 50.179688 36.839844 50.140625 C 37.035156 50.097656 37.21875 50.03125 37.398438 49.941406 L 60.835938 38.222656 C 61.234375 38.027344 61.550781 37.738281 61.785156 37.359375 C 62.019531 36.980469 62.136719 36.570312 62.136719 36.125 C 62.136719 35.683594 62.019531 35.269531 61.785156 34.894531 C 61.550781 34.515625 61.234375 34.226562 60.835938 34.027344 Z M 60.835938 34.035156 " fill-opacity="1" fill-rule="nonzero"></path><g clip-path="url(#68198a2f7e)"><path fill="#bba777" d="M 144.066406 68.019531 L 130.050781 68.019531 C 129.964844 68.019531 129.890625 67.976562 129.847656 67.90625 C 128.886719 66.359375 118.398438 49.570312 118.242188 49.253906 C 117.414062 48.011719 115.402344 46.253906 113.664062 45.78125 L 91.824219 40.601562 C 91.410156 40.511719 90.996094 40.46875 90.585938 40.46875 C 89.265625 40.449219 87.925781 40.867188 86.8125 41.753906 L 74.082031 55.785156 C 71.527344 57.820312 71.101562 61.539062 73.136719 64.097656 C 75.171875 66.652344 78.890625 67.074219 81.449219 65.042969 L 90.671875 54.296875 C 91.5 53.332031 92.789062 52.898438 94.03125 53.160156 L 101.195312 54.683594 C 101.285156 54.703125 101.332031 54.8125 101.277344 54.890625 L 81.394531 84.410156 C 80.292969 86.042969 79.121094 87.628906 77.878906 89.15625 L 71.964844 96.449219 C 71.484375 97.042969 70.742188 97.363281 69.980469 97.308594 L 46.621094 95.679688 C 43.359375 95.449219 40.535156 97.910156 40.308594 101.167969 C 40.082031 104.425781 42.539062 107.25 45.796875 107.476562 L 73.378906 109.402344 C 74.136719 109.457031 74.871094 109.363281 75.554688 109.148438 C 76.660156 108.824219 77.6875 108.171875 78.46875 107.203125 L 88.992188 94.234375 C 89.058594 94.152344 89.121094 94.070312 89.183594 93.988281 L 106.960938 106.914062 C 107.125 107.03125 107.179688 107.25 107.089844 107.429688 L 97.878906 126.574219 C 96.484375 129.464844 97.699219 132.9375 100.59375 134.332031 L 100.777344 134.421875 C 103.671875 135.8125 107.144531 134.597656 108.535156 131.703125 L 120.023438 107.84375 C 120.832031 106.164062 120.757812 104.292969 119.992188 102.742188 C 119.585938 101.824219 118.9375 100.996094 118.066406 100.363281 L 100.796875 87.804688 C 100.457031 87.558594 100.375 87.085938 100.609375 86.738281 L 114.375 66.304688 C 114.449219 66.191406 114.617188 66.191406 114.691406 66.304688 L 121.75 77.15625 C 122.703125 78.628906 124.207031 79.53125 125.816406 79.777344 C 125.824219 79.78125 125.835938 79.78125 125.84375 79.785156 C 125.929688 79.796875 126.011719 79.808594 126.097656 79.816406 C 126.121094 79.816406 126.144531 79.820312 126.167969 79.820312 C 126.242188 79.828125 126.3125 79.832031 126.382812 79.839844 C 126.417969 79.839844 126.453125 79.839844 126.484375 79.84375 C 126.546875 79.84375 126.609375 79.847656 126.667969 79.847656 C 126.6875 79.847656 126.703125 79.847656 126.722656 79.847656 L 144.066406 79.847656 C 147.335938 79.847656 149.984375 77.199219 149.984375 73.933594 C 149.984375 70.667969 147.335938 68.019531 144.066406 68.019531 " fill-opacity="1" fill-rule="nonzero"></path></g><g clip-path="url(#a9120e26ed)"><path fill="#bba777" d="M 117.769531 39.152344 C 117.769531 32.613281 123.070312 27.3125 129.605469 27.3125 C 136.144531 27.3125 141.445312 32.613281 141.445312 39.152344 C 141.445312 45.691406 136.144531 50.988281 129.605469 50.988281 C 123.070312 50.988281 117.769531 45.691406 117.769531 39.152344 " fill-opacity="1" fill-rule="nonzero"></path></g><path fill="#bba777" d="M 37.269531 71.667969 L 3.332031 71.667969 C 1.507812 71.667969 0.015625 70.175781 0.015625 68.351562 C 0.015625 66.527344 1.507812 65.039062 3.332031 65.039062 L 37.269531 65.039062 C 39.089844 65.039062 40.582031 66.527344 40.582031 68.351562 C 40.582031 70.175781 39.089844 71.667969 37.269531 71.667969 " fill-opacity="1" fill-rule="nonzero"></path><path fill="#bba777" d="M 48.476562 85.714844 L 20.695312 85.714844 C 18.871094 85.714844 17.378906 84.222656 17.378906 82.402344 C 17.378906 80.578125 18.871094 79.085938 20.695312 79.085938 L 48.476562 79.085938 C 50.296875 79.085938 51.789062 80.578125 51.789062 82.402344 C 51.789062 84.222656 50.296875 85.714844 48.476562 85.714844 " fill-opacity="1" fill-rule="nonzero"></path><path fill="#bba777" d="M 22.273438 52.882812 C 20.449219 52.882812 18.957031 54.375 18.957031 56.199219 C 18.957031 58.019531 20.449219 59.511719 22.273438 59.511719 L 27.796875 59.511719 C 29.628906 59.511719 31.113281 58.027344 31.113281 56.199219 C 31.113281 54.367188 29.628906 52.882812 27.796875 52.882812 L 22.273438 52.882812 " fill-opacity="1" fill-rule="nonzero"></path><path fill="#bba777" d="M 56.210938 52.882812 L 39.164062 52.882812 C 37.332031 52.882812 35.847656 54.367188 35.847656 56.199219 C 35.847656 58.027344 37.332031 59.511719 39.164062 59.511719 L 56.210938 59.511719 C 58.03125 59.511719 59.523438 58.019531 59.523438 56.199219 C 59.523438 54.375 58.03125 52.882812 56.210938 52.882812 " fill-opacity="1" fill-rule="nonzero"></path><g fill="#141414" fill-opacity="1"><g transform="translate(5.100708, 141.922649)"><g><path d="M 0.21875 0.015625 C 0.164062 0.015625 0.125 0 0.09375 -0.03125 C 0.0625 -0.0625 0.046875 -0.101562 0.046875 -0.15625 C 0.046875 -0.1875 0.0507812 -0.210938 0.0625 -0.234375 C 0.0820312 -0.253906 0.101562 -0.269531 0.125 -0.28125 C 0.15625 -0.300781 0.195312 -0.3125 0.25 -0.3125 C 0.28125 -0.320312 0.304688 -0.328125 0.328125 -0.328125 C 0.347656 -0.335938 0.363281 -0.347656 0.375 -0.359375 C 0.382812 -0.367188 0.390625 -0.382812 0.390625 -0.40625 C 0.390625 -0.425781 0.378906 -0.441406 0.359375 -0.453125 C 0.335938 -0.472656 0.3125 -0.484375 0.28125 -0.484375 C 0.238281 -0.484375 0.207031 -0.472656 0.1875 -0.453125 C 0.164062 -0.441406 0.144531 -0.425781 0.125 -0.40625 L 0.109375 -0.40625 L 0.078125 -0.453125 C 0.0976562 -0.484375 0.125 -0.503906 0.15625 -0.515625 C 0.1875 -0.535156 0.226562 -0.546875 0.28125 -0.546875 C 0.34375 -0.546875 0.390625 -0.53125 0.421875 -0.5 C 0.453125 -0.476562 0.46875 -0.441406 0.46875 -0.390625 L 0.46875 -0.109375 C 0.46875 -0.078125 0.476562 -0.0625 0.5 -0.0625 C 0.507812 -0.0625 0.519531 -0.0625 0.53125 -0.0625 L 0.546875 -0.015625 C 0.535156 -0.00390625 0.523438 0 0.515625 0 C 0.503906 0 0.492188 0 0.484375 0 C 0.453125 0 0.429688 -0.00390625 0.421875 -0.015625 C 0.410156 -0.0234375 0.398438 -0.046875 0.390625 -0.078125 L 0.375 -0.078125 C 0.363281 -0.046875 0.34375 -0.0195312 0.3125 0 C 0.289062 0.0078125 0.257812 0.015625 0.21875 0.015625 Z M 0.234375 -0.046875 C 0.265625 -0.046875 0.289062 -0.0507812 0.3125 -0.0625 C 0.332031 -0.0820312 0.347656 -0.101562 0.359375 -0.125 C 0.378906 -0.15625 0.390625 -0.1875 0.390625 -0.21875 L 0.390625 -0.28125 L 0.375 -0.296875 C 0.363281 -0.285156 0.347656 -0.273438 0.328125 -0.265625 C 0.316406 -0.265625 0.296875 -0.257812 0.265625 -0.25 C 0.234375 -0.25 0.207031 -0.242188 0.1875 -0.234375 C 0.164062 -0.222656 0.148438 -0.210938 0.140625 -0.203125 C 0.140625 -0.191406 0.140625 -0.175781 0.140625 -0.15625 C 0.140625 -0.125 0.144531 -0.0976562 0.15625 -0.078125 C 0.175781 -0.0546875 0.203125 -0.046875 0.234375 -0.046875 Z M 0.234375 -0.046875 "></path></g></g></g><g fill="#141414" fill-opacity="1"><g transform="translate(3.703572, 143.850003)"><g><path d="M 0.21875 0.015625 C 0.164062 0.015625 0.125 0 0.09375 -0.03125 C 0.0625 -0.0625 0.046875 -0.101562 0.046875 -0.15625 C 0.046875 -0.1875 0.0507812 -0.210938 0.0625 -0.234375 C 0.0820312 -0.253906 0.101562 -0.269531 0.125 -0.28125 C 0.15625 -0.300781 0.195312 -0.3125 0.25 -0.3125 C 0.28125 -0.320312 0.304688 -0.328125 0.328125 -0.328125 C 0.347656 -0.335938 0.363281 -0.347656 0.375 -0.359375 C 0.382812 -0.367188 0.390625 -0.382812 0.390625 -0.40625 C 0.390625 -0.425781 0.378906 -0.441406 0.359375 -0.453125 C 0.335938 -0.472656 0.3125 -0.484375 0.28125 -0.484375 C 0.238281 -0.484375 0.207031 -0.472656 0.1875 -0.453125 C 0.164062 -0.441406 0.144531 -0.425781 0.125 -0.40625 L 0.109375 -0.40625 L 0.078125 -0.453125 C 0.0976562 -0.484375 0.125 -0.503906 0.15625 -0.515625 C 0.1875 -0.535156 0.226562 -0.546875 0.28125 -0.546875 C 0.34375 -0.546875 0.390625 -0.53125 0.421875 -0.5 C 0.453125 -0.476562 0.46875 -0.441406 0.46875 -0.390625 L 0.46875 -0.109375 C 0.46875 -0.078125 0.476562 -0.0625 0.5 -0.0625 C 0.507812 -0.0625 0.519531 -0.0625 0.53125 -0.0625 L 0.546875 -0.015625 C 0.535156 -0.00390625 0.523438 0 0.515625 0 C 0.503906 0 0.492188 0 0.484375 0 C 0.453125 0 0.429688 -0.00390625 0.421875 -0.015625 C 0.410156 -0.0234375 0.398438 -0.046875 0.390625 -0.078125 L 0.375 -0.078125 C 0.363281 -0.046875 0.34375 -0.0195312 0.3125 0 C 0.289062 0.0078125 0.257812 0.015625 0.21875 0.015625 Z M 0.234375 -0.046875 C 0.265625 -0.046875 0.289062 -0.0507812 0.3125 -0.0625 C 0.332031 -0.0820312 0.347656 -0.101562 0.359375 -0.125 C 0.378906 -0.15625 0.390625 -0.1875 0.390625 -0.21875 L 0.390625 -0.28125 L 0.375 -0.296875 C 0.363281 -0.285156 0.347656 -0.273438 0.328125 -0.265625 C 0.316406 -0.265625 0.296875 -0.257812 0.265625 -0.25 C 0.234375 -0.25 0.207031 -0.242188 0.1875 -0.234375 C 0.164062 -0.222656 0.148438 -0.210938 0.140625 -0.203125 C 0.140625 -0.191406 0.140625 -0.175781 0.140625 -0.15625 C 0.140625 -0.125 0.144531 -0.0976562 0.15625 -0.078125 C 0.175781 -0.0546875 0.203125 -0.046875 0.234375 -0.046875 Z M 0.234375 -0.046875 "></path></g></g></g></svg>